<?xml version="1.0" encoding="iso-8859-1"?>
<!-- Uploaded to: SVG Repo, www.svgrepo.com, Generator: SVG Repo Mixer Tools -->
<svg fill="#000000" height="800px" width="800px" version="1.1" id="Layer_1" xmlns="http://www.w3.org/2000/svg" xmlns:xlink="http://www.w3.org/1999/xlink" 
	 viewBox="0 0 512.001 512.001" xml:space="preserve">
<g>
	<g>
		<path d="M452.631,136.406c-10.993-38.388-33.868-72.931-64.483-97.339C356.089,13.509,317.786,0,277.376,0
			c-48.762,0-94.627,19.833-129.149,55.846c-34.11,35.584-53.184,82.869-53.756,133.222c-0.017,0.301-0.024,0.606-0.024,0.911
			v10.373l-39.468,65.256c-4.248,7.025-4.383,15.832-0.351,22.983c4.032,7.151,11.638,11.594,19.847,11.594h19.911l0.061,43.08
			c0,56.502,45.968,102.47,102.472,102.47c8.181,0,15.786-0.069,22.761-0.18v49.839c0,9.172,7.436,16.608,16.608,16.608h132.231
			c9.172,0,16.608-7.436,16.608-16.608v-98.097c3.956-3.475,7.775-7.12,11.427-10.948c42.305-44.329,63.755-109.922,63.755-194.958
			C460.307,167.601,457.794,149.599,452.631,136.406z M257.643,146.222c0-34.81,28.32-63.13,63.13-63.13v63.13h63.13
			c0,34.809-28.32,63.13-63.13,63.13v-63.13H257.643z M351.907,478.783h-99.015v-34.209c10.289-0.456,64.385-5.268,99.015-23.993
			V478.783z M360.858,374.87c-45.858,36.671-121.95,37.648-163.942,37.648c-38.188,0-69.256-31.068-69.256-69.279l-0.085-59.687
			c-0.013-9.163-7.445-16.585-16.608-16.585H92.972l32.292-53.39c1.569-2.593,2.397-5.565,2.397-8.595v-14.255
			c0.009-0.207,0.014-0.415,0.017-0.624c0.651-86.507,67.805-156.887,149.698-156.887c27.623,0,54.052,8.2,76.807,22.638
			c-10.413-3.862-21.669-5.977-33.409-5.977c-53.124,0-96.345,43.22-96.345,96.345c0,53.124,43.22,96.345,96.345,96.345
			s96.345-43.22,96.345-96.345c0-4.959-0.378-9.831-1.103-14.589c1.845,4.757,3.48,9.635,4.885,14.628
			c0.169,0.602,0.372,1.195,0.608,1.774c2.547,6.247,5.582,18.839,5.582,43.353C427.091,290.32,397.343,345.692,360.858,374.87z"/>
	</g>
</g>
<g>
	<g>
		<path d="M181.69,182.846c-9.172,0-16.608,7.436-16.608,16.608v20.03c0,9.172,7.436,16.608,16.608,16.608
			c9.172,0,16.608-7.436,16.608-16.608v-20.03C198.298,190.281,190.862,182.846,181.69,182.846z"/>
	</g>
</g>
</svg>